<svg version="1.1" xmlns="http://www.w3.org/2000/svg" xmlns:xlink="http://www.w3.org/1999/xlink" width="600" height="300" viewBox="0,0,600,300"><g transform="translate(59.99999,-30.00005)"><g data-paper-data="{&quot;isPaintingLayer&quot;:true}" stroke-linejoin="miter" stroke-miterlimit="10" stroke-dasharray="" stroke-dashoffset="0" style="mix-blend-mode: normal"><path d="M-59.99999,330.00005v-300h600v300z" fill="#4c97ff" fill-rule="nonzero" stroke="none" stroke-width="1" stroke-linecap="butt"/><path d="M101.46699,173.7497v18.69868h-7.82613v-16.75528c0.0058,-0.73146 -0.04919,-1.46214 -0.1644,-2.18449c-0.43596,-2.5842 -1.73925,-3.92041 -3.90991,-4.00865c-0.07752,-0.00314 -0.1551,-0.00473 -0.23268,-0.00473c-0.56671,-0.00532 -1.13187,0.06014 -1.68236,0.19487c-1.14818,0.26553 -2.13586,0.99322 -2.72969,2.01116c-0.34284,0.59076 -0.60751,1.22354 -0.78735,1.88247c-0.33965,1.193 -0.51474,2.62954 -0.52524,4.30962c-0.00034,0.05445 -0.00052,0.1089 -0.00053,0.16335v14.39168h-7.82613v-16.75528c0.0058,-0.73146 -0.04919,-1.46214 -0.1644,-2.18449c-0.43596,-2.5842 -1.73925,-3.92041 -3.90991,-4.00865c-0.07752,-0.00314 -0.1551,-0.00473 -0.23268,-0.00473c-0.5777,-0.006 -1.15377,0.06267 -1.71387,0.20432c-1.21409,0.29255 -2.23315,1.11384 -2.77697,2.23806c-0.30359,0.61621 -0.53923,1.26361 -0.70278,1.93079c-0.3316,1.29875 -0.50808,2.86503 -0.52944,4.69883c-0.00145,0.12745 -0.00214,0.25492 -0.0021,0.38238v13.49877h-7.82613v-28.67831h5.98777l1.05049,3.6767h0.4202c0.87541,-1.47068 2.07471,-2.53867 3.59792,-3.20398c1.52321,-0.66531 3.1077,-0.99796 4.75346,-0.99796c2.10098,0 3.8868,0.34141 5.35748,1.02423c1.47068,0.68282 2.5912,1.74205 3.36156,3.17772h0.68282c0.87541,-1.47068 2.09222,-2.53867 3.65044,-3.20398c1.55822,-0.66531 3.16022,-0.99796 4.80598,-0.99796c3.25651,0 5.7164,0.83163 7.37967,2.4949c1.21261,1.21261 1.98315,2.96027 2.3116,5.24299c0.12678,0.9168 0.18804,1.84148 0.1833,2.76699zM260.93096,192.23827l-11.39779,-28.46821h8.56148l5.41001,16.12498c0.28013,0.77036 0.49023,1.56697 0.63029,2.38986c0.14006,0.82289 0.24511,1.68954 0.31514,2.59995h0.15757c0.10505,-0.91042 0.25387,-1.77707 0.44646,-2.59995c0.19259,-0.82289 0.41144,-1.6195 0.65655,-2.38986l5.30496,-16.12498h8.4039l-12.13313,32.35501c-0.40337,1.12833 -0.92374,2.21134 -1.55262,3.23131c-0.88521,1.41571 -1.94725,2.56756 -3.18613,3.45557c-0.0049,0.00333 -0.0098,0.00666 -0.01471,0.00998c-2.08346,1.48819 -4.49083,2.23228 -7.2221,2.23228c-0.31244,0.00035 -0.62485,-0.00578 -0.93703,-0.01838c-0.49373,-0.02031 -0.94299,-0.05795 -1.34778,-0.11293c-0.26896,-0.03608 -0.53738,-0.076 -0.8052,-0.11975c-0.24407,-0.04027 -0.47412,-0.08194 -0.69017,-0.12501c-0.07066,-0.01423 -0.14121,-0.02894 -0.21167,-0.04412v-6.19787c0.26472,0.04832 0.56673,0.09647 0.90605,0.14444c0.16181,0.02291 0.32377,0.04479 0.48585,0.06565c0.54275,0.07003 1.11176,0.10505 1.70704,0.10505c0.56467,0.00492 1.12763,-0.06286 1.675,-0.2017c0.85231,-0.21433 1.62761,-0.66302 2.23807,-1.29525c0.92863,-0.96889 1.6325,-2.13039 2.06158,-3.402c0.02252,-0.06509 0.04441,-0.1304 0.06565,-0.19592zM390.66614,173.7497v18.69868h-7.82613v-16.75528c0.00218,-0.54136 -0.02693,-1.08239 -0.0872,-1.62038c-0.14076,-1.20876 -0.45206,-2.17818 -0.93388,-2.90827c-0.02661,-0.04039 -0.05392,-0.08032 -0.08194,-0.11975c-0.72028,-1.01162 -1.86041,-1.52776 -3.42039,-1.54842c-0.03291,-0.00057 -0.06583,-0.00092 -0.09875,-0.00105c-2.3811,0 -4.00935,0.81413 -4.88476,2.44238c-0.83829,1.55963 -1.2753,3.7695 -1.31101,6.62963c-0.00149,0.12745 -0.00219,0.25492 -0.0021,0.38238v13.49877h-7.82613v-28.67831h5.98778l1.05048,3.6767h0.4202c0.91042,-1.47068 2.16225,-2.53867 3.75549,-3.20398c1.59324,-0.66531 3.28277,-0.99796 5.0686,-0.99796c1.05831,-0.00788 2.11405,0.10508 3.14674,0.33668c1.58087,0.34352 3.04728,1.08658 4.2592,2.15822c1.48048,1.32711 2.37043,3.29503 2.66982,5.90374c0.07801,0.69933 0.11607,1.40256 0.11398,2.10623zM425.17465,173.7497v18.69868h-7.82613v-16.75528c0.00218,-0.54136 -0.02693,-1.08239 -0.08719,-1.62038c-0.14076,-1.20876 -0.45206,-2.17818 -0.93388,-2.90827c-0.02661,-0.04039 -0.05392,-0.08032 -0.08194,-0.11975c-0.72028,-1.01162 -1.86041,-1.52776 -3.42039,-1.54842c-0.03291,-0.00057 -0.06583,-0.00092 -0.09875,-0.00105c-2.3811,0 -4.00936,0.81413 -4.88477,2.44238c-0.83829,1.55963 -1.27529,3.7695 -1.31101,6.62963c-0.00149,0.12745 -0.00219,0.25492 -0.0021,0.38238v13.49877h-7.82613v-28.67831h5.98777l1.05049,3.6767h0.42019c0.91042,-1.47068 2.16226,-2.53867 3.75549,-3.20398c1.59324,-0.66531 3.28277,-0.99796 5.0686,-0.99796c1.05831,-0.00788 2.11404,0.10508 3.14673,0.33668c1.58087,0.34352 3.04728,1.08658 4.2592,2.15822c1.48048,1.32711 2.37043,3.29503 2.66981,5.90374c0.07801,0.69933 0.11607,1.40256 0.11398,2.10623zM117.32935,189.29691h-0.4202c0.28013,1.47068 0.4202,2.87132 0.4202,4.20194v11.55536h-7.82613v-41.28415h6.35545l1.10301,3.72923h0.36767c0.61095,-0.90719 1.3644,-1.70976 2.23123,-2.37673c0.28016,-0.21819 0.56967,-0.4241 0.8677,-0.61716c1.13242,-0.73429 2.55899,-1.14783 4.27969,-1.24062c0.25399,-0.01348 0.5083,-0.02014 0.76265,-0.01996c1.44112,-0.01941 2.86955,0.27151 4.1883,0.85299c1.35898,0.61488 2.55531,1.56207 3.58899,2.84157c0.01635,0.02025 0.03262,0.04057 0.04885,0.06093c0.88501,1.13771 1.55984,2.42424 1.99277,3.79908c0.37537,1.13873 0.64517,2.40229 0.8094,3.79068c0.13174,1.15079 0.19575,2.30832 0.19171,3.46661c0,3.18473 -0.44225,5.871 -1.32676,8.05882c-0.43458,1.09974 -1.03198,2.12792 -1.77217,3.05009c-0.89431,1.12874 -2.01324,2.0595 -3.28593,2.73336c-1.43857,0.72904 -3.03267,1.09782 -4.64526,1.07465c-0.65584,0.00319 -1.31108,-0.04034 -1.96073,-0.13026c-0.66111,-0.0949 -1.26427,-0.24179 -1.80947,-0.44068c-0.40681,-0.14641 -0.79781,-0.33347 -1.16709,-0.55833c-0.6123,-0.37273 -1.19336,-0.79448 -1.7375,-1.26111c-0.45539,-0.39142 -0.87579,-0.82183 -1.25638,-1.28632zM15.22198,161.56404v30.88433h-7.93117v-30.88433h-10.18973v-6.61807h28.31063v6.61807zM221.74778,173.3295v19.11887h-5.46253l-1.5232,-3.88681h-0.2101c-0.46794,0.59324 -0.97879,1.15132 -1.52846,1.66975c-0.76125,0.71223 -1.54736,1.27616 -2.35834,1.69181c-1.36563,0.70032 -3.239,1.05049 -5.6201,1.05049c-1.01406,0.00868 -2.02433,-0.12499 -3.00125,-0.39709c-1.2422,-0.35086 -2.3889,-0.97826 -3.35421,-1.8352c-1.46648,-1.29841 -2.29322,-3.20346 -2.4802,-5.71517c-0.02775,-0.37911 -0.04142,-0.75912 -0.04097,-1.13925c0,-3.04641 1.068,-5.29621 3.20399,-6.74938c0.84194,-0.55833 1.75582,-0.99972 2.71656,-1.31206c1.86006,-0.62854 4.15852,-0.98781 6.8954,-1.0778l4.98981,-0.15757v-1.26058c0.00274,-0.41126 -0.03171,-0.82192 -0.10295,-1.22697c-0.16387,-0.89397 -0.5235,-1.58799 -1.07886,-2.08206c-0.78787,-0.70032 -1.88212,-1.05049 -3.28277,-1.05049c-1.40065,0 -2.76628,0.20135 -4.0969,0.60403c-1.33062,0.40268 -2.66123,0.90167 -3.99185,1.49695l-2.57369,-5.30496c1.54072,-0.80537 3.24776,-1.43567 5.12113,-1.89088c1.87337,-0.45521 3.82552,-0.68282 5.85646,-0.68282c3.85179,0 6.80191,0.83163 8.85036,2.4949c1.29081,1.06158 2.21205,2.50486 2.63147,4.12264c0.29414,1.04629 0.4412,2.2195 0.4412,3.51966zM356.15763,173.3295v19.11887h-5.46254l-1.5232,-3.88681h-0.2101c-0.46794,0.59324 -0.97879,1.15132 -1.52846,1.66975c-0.76125,0.71223 -1.54736,1.27616 -2.35834,1.69181c-1.36563,0.70032 -3.239,1.05049 -5.62011,1.05049c-1.01407,0.00868 -2.02433,-0.12499 -3.00124,-0.39709c-1.24219,-0.35086 -2.3889,-0.97826 -3.3542,-1.8352c-1.46648,-1.29841 -2.29322,-3.20346 -2.4802,-5.71517c-0.02775,-0.37911 -0.04142,-0.75912 -0.04097,-1.13925c0,-3.04641 1.06799,-5.29621 3.20398,-6.74938c0.84194,-0.55833 1.75582,-0.99972 2.71656,-1.31206c1.86007,-0.62854 4.15853,-0.98781 6.8954,-1.0778l4.98982,-0.15757v-1.26058c0.00274,-0.41126 -0.03172,-0.82192 -0.10295,-1.22697c-0.16388,-0.89397 -0.52349,-1.58799 -1.07885,-2.08206c-0.78787,-0.70032 -1.88213,-1.05049 -3.28278,-1.05049c-1.40065,0 -2.76628,0.20135 -4.0969,0.60403c-1.33062,0.40268 -2.66123,0.90167 -3.99185,1.49695l-2.57369,-5.30496c1.54071,-0.80537 3.24775,-1.43567 5.12112,-1.89088c1.87337,-0.45521 3.82553,-0.68282 5.85647,-0.68282c3.85179,0 6.8019,0.83163 8.85035,2.4949c1.2908,1.06158 2.21205,2.50486 2.63147,4.12264c0.29413,1.04629 0.4412,2.2195 0.4412,3.51966zM51.56885,176.27087v3.78175h-18.48858c0.01781,0.7409 0.1193,1.47741 0.30254,2.19552c0.29309,1.11141 0.794,2.05528 1.50272,2.83159c0.05369,0.05865 0.10851,0.11626 0.16441,0.17281c0.82927,0.8303 1.87923,1.4054 3.0254,1.65714c0.6541,0.15547 1.3672,0.23338 2.13931,0.23373c0.00297,0 0.00596,0 0.00893,0c1.85586,0 3.53664,-0.18383 5.04234,-0.5515c0.98139,-0.24259 1.94516,-0.55162 2.88464,-0.92495c0.6057,-0.23953 1.20276,-0.5004 1.79004,-0.7821v6.04031c-1.40065,0.70032 -2.88009,1.21681 -4.43832,1.54947c-0.68055,0.14262 -1.36793,0.25044 -2.05947,0.32303c-1.0813,0.1173 -2.27694,0.17596 -3.58689,0.17596c-2.87133,0 -5.41001,-0.534 -7.61603,-1.602c-2.20602,-1.06799 -3.93933,-2.68749 -5.19991,-4.8585c-1.26058,-2.17101 -1.89087,-4.90228 -1.89087,-8.1938c-0.00523,-1.18481 0.07499,-2.36845 0.24003,-3.54172c0.26683,-1.83415 0.75582,-3.44612 1.467,-4.83592c0.62815,-1.25335 1.4669,-2.38951 2.47968,-3.35894c0.68464,-0.6465 1.4487,-1.20334 2.27378,-1.65714c1.42983,-0.77779 2.98932,-1.28879 4.60219,-1.50798c0.82433,-0.11712 1.656,-0.17486 2.4886,-0.1728c3.95683,0 7.09079,1.12928 9.40186,3.38782c2.31107,2.25854 3.46661,5.47129 3.46661,9.63822zM457.89733,176.27087v3.78175h-18.48858c0.01781,0.7409 0.1193,1.47741 0.30255,2.19552c0.29309,1.11141 0.79399,2.05528 1.50272,2.83159c0.0537,0.05865 0.10851,0.11626 0.16441,0.17281c0.82927,0.8303 1.87922,1.4054 3.0254,1.65714c0.6541,0.15547 1.36721,0.23338 2.13932,0.23373c0.00297,0 0.00595,0 0.00893,0c1.85586,0 3.53664,-0.18383 5.04234,-0.5515c0.9814,-0.24259 1.94516,-0.55162 2.88464,-0.92495c0.6057,-0.23953 1.20275,-0.5004 1.79003,-0.7821v6.04031c-1.40065,0.70032 -2.88009,1.21681 -4.43831,1.54947c-0.68056,0.14262 -1.36794,0.25044 -2.05948,0.32303c-1.0813,0.1173 -2.27693,0.17596 -3.58689,0.17596c-2.87133,0 -5.41001,-0.534 -7.61604,-1.602c-2.20602,-1.06799 -3.93932,-2.68749 -5.19991,-4.8585c-1.26058,-2.17101 -1.89088,-4.90228 -1.89088,-8.1938c-0.00523,-1.18481 0.075,-2.36845 0.24003,-3.54172c0.26682,-1.83415 0.75583,-3.44612 1.46701,-4.83592c0.62815,-1.25335 1.4669,-2.38951 2.47967,-3.35894c0.68464,-0.6465 1.44869,-1.20334 2.27378,-1.65714c1.42983,-0.77779 2.98932,-1.28879 4.60219,-1.50798c0.82432,-0.11712 1.656,-0.17486 2.48861,-0.1728c3.95684,0 7.09079,1.12928 9.40186,3.38782c2.31107,2.25854 3.46661,5.47129 3.46661,9.63822zM297.80306,154.94597h11.66041c1.3132,-0.00399 2.6259,0.05157 3.93408,0.16651c3.10349,0.28294 5.57389,0.92775 7.41119,1.93447c2.55619,1.40065 3.83428,3.86929 3.83428,7.40594c0.00561,0.84925 -0.08371,1.69648 -0.2663,2.5259c-0.2253,1.03018 -0.64281,2.00863 -1.23065,2.88411c-0.94113,1.40514 -2.41894,2.36117 -4.0864,2.64356c-0.06464,0.01252 -0.12941,0.02425 -0.19433,0.03519v0.26262c0.93977,0.17766 1.85019,0.48544 2.705,0.91445c0.24198,0.12262 0.47856,0.25564 0.70908,0.39866c1.01547,0.63029 1.82084,1.54072 2.41612,2.73127c0.25323,0.51745 0.44587,1.06241 0.57409,1.62405c0.12606,0.5326 0.21483,1.11369 0.2663,1.74328c0.0359,0.45239 0.05342,0.90604 0.05253,1.35985c0.01322,1.21365 -0.16873,2.42154 -0.5389,3.57744c-0.58006,1.75036 -1.67339,3.28568 -3.13781,4.40627c-1.28701,0.99128 -2.75419,1.72334 -4.32013,2.1556c-1.16219,0.33615 -2.43363,0.55676 -3.81432,0.66181c-0.64894,0.04848 -1.29948,0.07231 -1.95023,0.07144h-14.024zM193.90987,163.45492l-0.57777,7.35341c-0.08205,-0.02299 -0.16492,-0.04296 -0.24844,-0.05988c-0.16843,-0.03502 -0.36977,-0.06741 -0.60403,-0.09717c-0.07468,-0.00952 -0.14945,-0.01845 -0.22428,-0.02679c-0.16832,-0.01878 -0.33695,-0.03472 -0.50581,-0.0478c-0.26683,-0.02066 -0.50966,-0.03099 -0.72851,-0.03099c-1.33062,0 -2.60871,0.23637 -3.83428,0.70908c-1.22557,0.47271 -2.21478,1.23432 -2.96762,2.28481c-0.75285,1.05049 -1.12927,2.48616 -1.12927,4.307v14.60178h-7.82613v-28.67831h5.93525l1.15554,4.83224h0.36767c0.84039,-1.47068 1.99592,-2.73127 3.4666,-3.78176c1.40418,-0.99987 3.07972,-1.54807 4.80336,-1.57153c0.09715,-0.00277 0.19432,-0.00416 0.29151,-0.0042c0.15428,0.00015 0.30854,0.00259 0.46274,0.00735c0.27347,0.00841 0.57444,0.02346 0.9029,0.04517c0.50143,0.03361 0.90709,0.08299 1.21699,0.14812c0.01455,0.00307 0.02908,0.00622 0.0436,0.00945zM248.43016,163.45492l-0.57777,7.35341c-0.08205,-0.02299 -0.16492,-0.04296 -0.24844,-0.05988c-0.16843,-0.03502 -0.36977,-0.06741 -0.60403,-0.09717c-0.07468,-0.00952 -0.14945,-0.01845 -0.22428,-0.02679c-0.16832,-0.01878 -0.33695,-0.03472 -0.50581,-0.0478c-0.26683,-0.02066 -0.50966,-0.03099 -0.72851,-0.03099c-1.33062,0 -2.60871,0.23637 -3.83428,0.70908c-1.22557,0.47271 -2.21478,1.23432 -2.96762,2.28481c-0.75285,1.05049 -1.12928,2.48616 -1.12928,4.307v14.60178h-7.82613v-28.67831h5.93525l1.15554,4.83224h0.36767c0.84039,-1.47068 1.99593,-2.73127 3.46661,-3.78176c1.40418,-0.99987 3.07972,-1.54807 4.80335,-1.57153c0.09715,-0.00277 0.19433,-0.00416 0.29151,-0.0042c0.15428,0.00015 0.30854,0.00259 0.46274,0.00735c0.27347,0.00841 0.57444,0.02346 0.9029,0.04517c0.50143,0.03361 0.90709,0.08299 1.21699,0.14812c0.01455,0.00307 0.02908,0.00622 0.0436,0.00945zM482.89893,163.45492l-0.57778,7.35341c-0.08206,-0.02299 -0.16492,-0.04296 -0.24844,-0.05988c-0.16843,-0.03502 -0.36976,-0.06741 -0.60402,-0.09717c-0.07468,-0.00952 -0.14945,-0.01845 -0.22428,-0.02679c-0.16832,-0.01878 -0.33695,-0.03472 -0.50581,-0.0478c-0.26682,-0.02066 -0.50966,-0.03099 -0.72851,-0.03099c-1.33062,0 -2.60871,0.23637 -3.83428,0.70908c-1.22557,0.47271 -2.21478,1.23432 -2.96762,2.28481c-0.75284,1.05049 -1.12928,2.48616 -1.12928,4.307v14.60178h-7.82613v-28.67831h5.93525l1.15554,4.83224h0.36767c0.84039,-1.47068 1.99592,-2.73127 3.46661,-3.78176c1.40418,-0.99987 3.07972,-1.54807 4.80335,-1.57153c0.09715,-0.00277 0.19433,-0.00416 0.29151,-0.0042c0.15427,0.00015 0.30854,0.00259 0.46274,0.00735c0.27382,0.00841 0.57479,0.02346 0.90289,0.04517c0.50143,0.03361 0.9071,0.08299 1.21699,0.14812c0.01455,0.00307 0.02909,0.00622 0.0436,0.00945zM168.80322,178.05669c0,4.76221 -1.25182,8.43892 -3.75549,11.03012c-2.50367,2.5912 -5.90899,3.8868 -10.21598,3.8868c-2.66124,0 -5.03359,-0.57776 -7.11706,-1.73331c-2.02963,-1.13066 -3.69424,-2.81733 -4.7981,-4.86166c-0.0382,-0.06868 -0.07584,-0.13766 -0.11293,-0.20694c-1.19055,-2.22353 -1.78583,-4.92854 -1.78583,-8.11501c-0.01027,-1.45149 0.12381,-2.90042 0.40024,-4.32538c0.34246,-1.69759 0.9043,-3.20032 1.68551,-4.50817c0.46231,-0.77635 1.01389,-1.49592 1.64349,-2.14405c1.7428,-1.77337 3.98145,-2.97783 6.42163,-3.45505c1.25668,-0.26033 2.5373,-0.38744 3.82063,-0.37922c1.32046,-0.0082 2.63688,0.14669 3.91936,0.46116c1.12616,0.27964 2.21027,0.70742 3.22394,1.27214c2.06596,1.15554 3.69422,2.82756 4.88477,5.01608c0.64574,1.20791 1.11081,2.50399 1.38034,3.84688c0.27033,1.2921 0.40548,2.6973 0.40548,4.21561zM149.00154,178.05669c-0.0031,0.7829 0.03793,1.56535 0.12291,2.34364c0.19364,1.70529 0.61664,3.06882 1.26899,4.0906c0.68154,1.07414 1.7829,1.81264 3.03538,2.03532c0.49639,0.09964 1.0017,0.14804 1.50798,0.14444c0.59509,0.00608 1.18847,-0.06489 1.76534,-0.21114c1.12991,-0.27686 2.10752,-0.98299 2.72549,-1.96861c0.35557,-0.57144 0.63159,-1.18868 0.82043,-1.83468c0.35682,-1.17059 0.5466,-2.59032 0.56937,-4.2592c0.00146,-0.11345 0.00216,-0.22691 0.0021,-0.34036c0.00268,-0.7429 -0.03415,-1.48541 -0.1103,-2.2244c-0.18733,-1.75221 -0.61453,-3.13799 -1.28159,-4.15731c-0.66545,-1.01797 -1.71379,-1.72406 -2.90723,-1.95811c-0.53744,-0.11673 -1.08618,-0.17346 -1.63613,-0.16913c-0.58954,-0.00563 -1.17747,0.06249 -1.75011,0.20275c-1.12835,0.26229 -2.1109,0.95222 -2.74072,1.92449c-0.88976,1.35968 -1.35286,3.37102 -1.38927,6.034c-0.00168,0.11589 -0.00255,0.2318 -0.00262,0.34771zM117.32935,177.16378v0.84039c0,2.73406 0.40181,4.8438 1.20543,6.32919c0.00955,0.01755 0.01918,0.03506 0.02889,0.05252c0.5716,1.03987 1.56538,1.78138 2.72496,2.03322c0.49548,0.12465 1.04383,0.19084 1.64506,0.19854c0.04027,0.00044 0.08053,0.00061 0.12081,0.00052c1.70879,0 2.99284,-0.68123 3.85214,-2.04372c0.03906,-0.0621 0.07688,-0.12496 0.11345,-0.18856c0.32931,-0.58564 0.58427,-1.21008 0.75898,-1.85884c0.34106,-1.21646 0.51684,-2.68575 0.52734,-4.40785c0.00035,-0.05585 0.00053,-0.1117 0.00053,-0.16755c0,-3.8847 -0.84792,-6.43091 -2.54376,-7.63862c-0.82754,-0.56391 -1.81285,-0.85029 -2.81373,-0.81781c-1.3012,0 -2.35431,0.25877 -3.15933,0.77631c-0.44898,0.28733 -0.83133,0.66735 -1.1214,1.11456c-0.30423,0.47865 -0.54472,0.99495 -0.71538,1.53581c-0.37012,1.12752 -0.57812,2.54147 -0.62399,4.24186zM310.67153,176.11329h-4.93729v9.76953h5.19991c2.01028,0 3.50898,-0.33056 4.49608,-0.99166c0.17663,-0.11781 0.34192,-0.2518 0.49373,-0.40024c0.72804,-0.71847 1.19913,-1.65676 1.34042,-2.66981c0.05298,-0.34181 0.07898,-0.68726 0.07774,-1.03315c0.00579,-0.54325 -0.07779,-1.08376 -0.24739,-1.59989c-0.23477,-0.6909 -0.64768,-1.30764 -1.19703,-1.78793c-0.35455,-0.30434 -0.76041,-0.5432 -1.1986,-0.7054c-0.77001,-0.30114 -1.75274,-0.48532 -2.94819,-0.55256c-0.35945,-0.0197 -0.71939,-0.02933 -1.07938,-0.02889zM305.73424,169.81037h4.62214c0.53425,0.00197 1.0683,-0.021 1.60041,-0.0688c1.06099,-0.0998 1.91347,-0.30762 2.55741,-0.62346c0.23127,-0.11127 0.44879,-0.24912 0.64815,-0.41075c0.64495,-0.53385 1.08154,-1.27759 1.23327,-2.10097c0.07281,-0.3631 0.10837,-0.73269 0.1061,-1.10301c0.00435,-0.41313 -0.04706,-0.82496 -0.15285,-1.22434c-0.20544,-0.78956 -0.71766,-1.46439 -1.42289,-1.87459c-1.05049,-0.63029 -2.71376,-0.94544 -4.98981,-0.94544h-4.20195zM213.97418,179.1597l-3.04641,0.10505c-2.00748,0.05603 -3.52648,0.35611 -4.55701,0.90027c-0.24839,0.12878 -0.48164,0.28487 -0.69543,0.46537c-0.88968,0.74559 -1.421,1.83382 -1.46175,2.99389c-0.00601,0.10494 -0.00899,0.21004 -0.00893,0.31515c0,1.19055 0.35017,2.03969 1.05049,2.54743c0.39929,0.28457 0.8498,0.48932 1.32676,0.60298c0.42405,0.10575 0.89221,0.15863 1.40451,0.15863c0.74288,0.00684 1.48214,-0.10414 2.19027,-0.32881c0.75946,-0.24697 1.46147,-0.64423 2.06421,-1.16814c0.85238,-0.73942 1.42174,-1.75172 1.61092,-2.86415c0.08377,-0.4498 0.12474,-0.90653 0.12238,-1.36406zM348.38403,179.1597l-3.04641,0.10505c-2.00748,0.05603 -3.52649,0.35611 -4.55702,0.90027c-0.24838,0.12878 -0.48164,0.28487 -0.69542,0.46537c-0.88968,0.74559 -1.421,1.83382 -1.46175,2.99389c-0.00601,0.10494 -0.00899,0.21004 -0.00893,0.31515c0,1.19055 0.35016,2.03969 1.05049,2.54743c0.39929,0.28457 0.8498,0.48932 1.32676,0.60298c0.42405,0.10575 0.89221,0.15863 1.4045,0.15863c0.74288,0.00684 1.48214,-0.10414 2.19026,-0.32881c0.75946,-0.24697 1.46147,-0.64423 2.06421,-1.16814c0.85238,-0.73942 1.42174,-1.75172 1.61093,-2.86415c0.08377,-0.4498 0.12475,-0.90653 0.12238,-1.36406zM33.23783,174.85271h10.9776c-0.0087,-0.66193 -0.09133,-1.32082 -0.24634,-1.96441c-0.20399,-0.85897 -0.58524,-1.66584 -1.1193,-2.36885c-0.57184,-0.73515 -1.37347,-1.25754 -2.27693,-1.48381c-0.47482,-0.13026 -0.99866,-0.20344 -1.57153,-0.21955c-0.08279,-0.0024 -0.16562,-0.00362 -0.24844,-0.00368c-0.65328,-0.00671 -1.30285,0.09901 -1.92029,0.31252c-0.68958,0.24615 -1.31625,0.64164 -1.8352,1.15816c-0.46562,0.46829 -0.83531,1.02299 -1.0883,1.63298c-0.20799,0.48218 -0.37135,1.02318 -0.49006,1.623c-0.0846,0.4342 -0.14509,0.87275 -0.18121,1.31363zM439.56632,174.85271h10.97759c-0.0087,-0.66193 -0.09132,-1.32082 -0.24633,-1.96441c-0.20398,-0.85897 -0.58524,-1.66584 -1.1193,-2.36885c-0.57184,-0.73515 -1.37347,-1.25754 -2.27693,-1.48381c-0.47482,-0.13026 -0.99866,-0.20344 -1.57153,-0.21955c-0.08279,-0.0024 -0.16561,-0.00362 -0.24844,-0.00368c-0.65328,-0.00671 -1.30285,0.09901 -1.92029,0.31252c-0.68958,0.24615 -1.31625,0.64164 -1.8352,1.15816c-0.46562,0.46829 -0.83531,1.02299 -1.0883,1.63298c-0.20799,0.48218 -0.37135,1.02318 -0.49006,1.623c-0.08459,0.4342 -0.14509,0.87275 -0.18121,1.31363z" fill="#ffffff" fill-rule="evenodd" stroke="#ffffff" stroke-width="0.5" stroke-linecap="round"/></g></g></svg>
